<svg xmlns="http://www.w3.org/2000/svg"
	 viewBox="0 0 16 16">
<g>
	<path d="M13.42,6.5V6.49c-0.11-0.2-0.3-0.3-0.53-0.31H9.68l1.56-5.44c0.08-0.28-0.06-0.57-0.31-0.68C10.69-0.06,10.4,0,10.21,0.21
		L2.66,8.85C2.5,9.03,2.47,9.29,2.58,9.51c0.11,0.2,0.31,0.32,0.53,0.32h3.21l-1.57,5.43c-0.07,0.28,0.07,0.57,0.35,0.69
		C5.17,15.99,5.25,16,5.3,16h0.03c0.17,0.01,0.34-0.07,0.46-0.21l7.55-8.64C13.5,6.97,13.53,6.71,13.42,6.5z M5.87,14.42l1.57-5.44
		H3.66l6.46-7.4L8.56,7.02h3.78L5.87,14.42z"/>
</g>
</svg>
